<?xml version="1.0" encoding="UTF-8"?>
<svg xmlns="http://www.w3.org/2000/svg" version="1.1" viewBox="0 0 273.43 178.35">
  <defs>
    <style>
      .cls-1 {
        fill: #163f71;
      }

      .cls-2 {
        fill: #183f75;
      }

      .cls-3 {
        fill: #fff;
      }

      .cls-4 {
        fill: #e30613;
      }
    </style>
  </defs>
  <!-- Generator: Adobe Illustrator 28.7.1, SVG Export Plug-In . SVG Version: 1.2.0 Build 142)  -->
  <g>
    <g id="Capa_1">
      <rect class="cls-1" width="273.43" height="142.2"/>
      <rect class="cls-3" x="0" y="142.2" width="273.43" height="24.43"/>
      <rect class="cls-1" y="166.63" width="273.43" height="11.73"/>
      <path class="cls-3" d="M40.51,113.28h-7.77c-2.3-2.49-4.41-5.11-6.34-7.85-.28-.42-.79-1.13-1.53-2.14-.74-1.01-1.52-1.95-2.33-2.83-.81-.88-1.44-1.36-1.89-1.45h-1.13c-.53,0-.98.2-1.34.61-.36.41-.55.88-.55,1.41v6.22c0,1.99.26,3.26.78,3.82.52.56,1.71.9,3.59,1.01v1.13h-13.06v-1.13c1.9-.08,3.11-.41,3.63-.97.52-.56.78-1.85.78-3.86v-18.94c0-1.99-.26-3.26-.78-3.82-.52-.56-1.73-.9-3.63-1.01v-1.13h14.07c1.46,0,2.92.25,4.39.73,1.47.49,2.71,1.25,3.72,2.29,1.01,1.04,1.51,2.39,1.51,4.07,0,1.48-.29,2.73-.88,3.74-1.04,1.74-2.95,3.19-5.75,4.37-.11.03-.17.13-.17.29,0,.28,1.46,2.13,4.37,5.54,2.6,3.11,4.35,5.12,5.25,6.05,1.68,1.82,3.37,2.79,5.08,2.9v.97ZM21.32,97.57c2.07,0,3.74-.69,5-2.06,1.26-1.37,1.89-3.07,1.89-5.08,0-1.74-.39-3.09-1.16-4.05-.77-.97-1.79-1.65-3.07-2.06-1.27-.41-2.67-.61-4.18-.61-.36,0-.72.11-1.07.32-.35.21-.61.62-.78,1.24-.17.62-.27,1.27-.29,1.97-.03.7-.04,2.6-.04,5.71,0,2.77.02,4.19.06,4.26.04.07.1.11.19.13.08.01.14.04.17.06.56.11,1.11.17,1.64.17h1.64Z"/>
      <path class="cls-3" d="M48.7,113.82c-1.34,0-2.53-.43-3.55-1.3-1.02-.87-1.53-2.02-1.53-3.44,0-.9.22-1.76.67-2.58.45-.83.99-1.53,1.64-2.12.92-.87,2.01-1.49,3.26-1.87,1.25-.38,2.47-.57,3.67-.57.59,0,1.18.04,1.76.13h.17c.78,0,1.18-.36,1.18-1.09v-2.14c0-.78-.14-1.55-.42-2.31-.28-.76-.71-1.39-1.28-1.91-.57-.52-1.32-.78-2.25-.78-.64,0-1.32.22-2.04.65-.71.43-1.25.93-1.62,1.49-.08.14-.13.27-.15.38-.01.11-.02.45-.02,1.01,0,.45-.18.82-.53,1.11-.35.29-.75.44-1.2.44-.53,0-1.01-.21-1.43-.63s-.63-.91-.63-1.47c0-1.09.57-2.02,1.72-2.79,1.15-.77,2.46-1.36,3.93-1.76,1.47-.41,2.65-.61,3.55-.61,1.23,0,2.48.31,3.74.92,1.18.76,1.86,1.76,2.06,3.02.11.62.17,1.25.19,1.91.01.66.02,4.19.02,10.6,0,.9.11,1.55.34,1.95.22.41.57.65,1.05.73.48.08,1.09.13,1.85.13l.17.92c-.53.39-1.2.81-2.02,1.26-.81.45-1.48.67-2.02.67-.84,0-1.57-.35-2.18-1.05-.53-.73-.83-1.53-.88-2.39v-.21s-.03-.07-.08-.13c0-.08-.06-.13-.17-.13-.06,0-.7.43-1.93,1.3l-2.65,1.97c-.76.45-1.55.67-2.39.67ZM50.93,111.05c.48,0,.92-.14,1.34-.42.5-.25,1.19-.66,2.06-1.22,1.04-.73,1.55-1.27,1.55-1.64l.04-2.65c0-.45-.13-.83-.38-1.15-.25-.32-.57-.51-.97-.57-1.04,0-2.02.07-2.94.21-1.79.28-3.02,1.11-3.7,2.48-.31.59-.46,1.19-.46,1.81,0,1.04.33,1.82.99,2.35.66.53,1.48.8,2.46.8Z"/>
      <path class="cls-3" d="M77.56,113.23h-11.05v-1.09c1.43-.03,2.34-.29,2.75-.78.41-.49.61-1.48.61-2.96v-12.98c0-.76-.42-1.19-1.26-1.3h-2.18l-.17-.38,1.01-1.34h1.34c.76,0,1.18-.43,1.26-1.3v-.71c.03-1.62.42-3.27,1.18-4.93.76-1.67,1.79-3.08,3.11-4.24,1.32-1.16,2.83-1.74,4.54-1.74.53,0,1.2.13,2.02.38.81.25,1.53.62,2.16,1.11.63.49.95,1.07.95,1.74,0,.59-.22,1.09-.65,1.49-.43.41-.93.61-1.49.61-.67,0-1.22-.15-1.64-.44-.42-.29-.78-.62-1.09-.99l-.59-.67c-.39-.53-.83-.8-1.3-.8-1.76,0-2.86,1.19-3.28,3.57-.25,1.4-.38,2.88-.38,4.45l.04,1.18c0,.78.43,1.22,1.3,1.3h3.82l.04.17c0,.64-.17,1.16-.5,1.55h-2.02c-1.76.22-2.65,1.12-2.65,2.69v11.3c0,1.79.29,2.91.86,3.34.57.43,1.66.67,3.26.69v1.09Z"/>
      <path class="cls-3" d="M86.8,113.82c-1.34,0-2.53-.43-3.55-1.3-1.02-.87-1.53-2.02-1.53-3.44,0-.9.22-1.76.67-2.58.45-.83.99-1.53,1.64-2.12.92-.87,2.01-1.49,3.26-1.87,1.25-.38,2.47-.57,3.67-.57.59,0,1.18.04,1.76.13h.17c.78,0,1.18-.36,1.18-1.09v-2.14c0-.78-.14-1.55-.42-2.31-.28-.76-.71-1.39-1.28-1.91-.57-.52-1.32-.78-2.25-.78-.64,0-1.32.22-2.04.65-.71.43-1.25.93-1.62,1.49-.08.14-.13.27-.15.38-.01.11-.02.45-.02,1.01,0,.45-.18.82-.53,1.11-.35.29-.75.44-1.2.44-.53,0-1.01-.21-1.43-.63s-.63-.91-.63-1.47c0-1.09.57-2.02,1.72-2.79,1.15-.77,2.46-1.36,3.93-1.76,1.47-.41,2.65-.61,3.55-.61,1.23,0,2.48.31,3.74.92,1.18.76,1.86,1.76,2.06,3.02.11.62.17,1.25.19,1.91.01.66.02,4.19.02,10.6,0,.9.11,1.55.34,1.95.22.41.57.65,1.05.73.48.08,1.09.13,1.85.13l.17.92c-.53.39-1.2.81-2.01,1.26-.81.45-1.48.67-2.02.67-.84,0-1.57-.35-2.18-1.05-.53-.73-.83-1.53-.88-2.39v-.21s-.03-.07-.08-.13c0-.08-.06-.13-.17-.13-.06,0-.7.43-1.93,1.3l-2.65,1.97c-.76.45-1.55.67-2.39.67ZM89.02,111.05c.48,0,.92-.14,1.34-.42.5-.25,1.19-.66,2.06-1.22,1.04-.73,1.55-1.27,1.55-1.64l.04-2.65c0-.45-.13-.83-.38-1.15-.25-.32-.57-.51-.97-.57-1.04,0-2.02.07-2.94.21-1.79.28-3.02,1.11-3.7,2.48-.31.59-.46,1.19-.46,1.81,0,1.04.33,1.82.99,2.35.66.53,1.48.8,2.46.8Z"/>
      <path class="cls-3" d="M114.06,113.91c-1.9,0-3.56-.46-4.96-1.39s-2.47-2.16-3.21-3.7c-.74-1.54-1.11-3.23-1.11-5.08,0-3.19,1.08-5.99,3.23-8.4,2.1-2.3,4.4-3.44,6.89-3.44,2.02,0,3.7.73,5.06,2.21,1.36,1.47,2.04,3.2,2.04,5.19,0,.42-.08.71-.25.88-.42.36-1.41.57-2.98.63l-.76.04c-2.35.17-4.3.28-5.84.34-.53,0-1.09.03-1.66.08-.57.06-1.06.28-1.45.67-.39.39-.59.88-.59,1.47l.04.38c.2,1.23.59,2.39,1.2,3.47.6,1.08,1.4,1.95,2.39,2.62.99.67,2.16,1.01,3.51,1.01,1.93,0,3.77-.78,5.5-2.35l.63.8c-.92,1.15-2.07,2.2-3.44,3.15-1.37.95-2.79,1.43-4.24,1.43ZM111.41,99.58c3.67,0,5.77-.1,6.3-.29.25-.08.38-.32.38-.71,0-1.32-.35-2.51-1.05-3.57-.7-1.06-1.79-1.6-3.28-1.6-1.06,0-1.95.33-2.65.99-.7.66-1.26,1.45-1.68,2.37s-.71,1.82-.88,2.69v.13h2.86Z"/>
      <path class="cls-3" d="M136.53,113.23h-10.96v-1.05c1.46-.11,2.39-.4,2.81-.86s.63-1.48.63-3.04v-22.47c0-1.57-.19-2.57-.57-3-.38-.43-1.3-.69-2.75-.78v-.92c2.46-.34,4.89-.87,7.27-1.6v28.77c0,1.6.22,2.63.67,3.11.45.48,1.41.76,2.9.84v1.01Z"/>
      <path class="cls-3" d="M166.76,113.99c-2.3,0-4.52-.55-6.68-1.64-.17-.06-.32-.08-.46-.08-.22,0-.47.1-.74.29-.27.2-.45.52-.57.97h-.38v-8.23l1.01-.04c.62,3.25,2.46,5.47,5.54,6.68.84.34,1.68.5,2.52.5,1.82,0,3.3-.48,4.45-1.43,1.15-.95,1.72-2.39,1.72-4.33,0-1.06-.22-1.97-.67-2.73-.45-.76-1.03-1.41-1.74-1.97-.71-.56-1.5-1.07-2.35-1.53-.85-.46-1.67-.88-2.46-1.26s-1.5-.75-2.14-1.11c-1.54-.84-2.84-1.9-3.91-3.17-1.07-1.27-1.6-2.82-1.6-4.64,0-1.68.44-3.15,1.32-4.41.88-1.26,2.07-2.27,3.57-3.04,1.5-.77,3.35-1.15,5.57-1.15,1.82,0,3.49.36,5,1.09.14.08.32.13.55.13.11,0,.29-.02.53-.06.24-.04.47-.26.69-.65l.34.04v7.39h-1.13c-1.04-4.37-3.29-6.55-6.76-6.55-1.57,0-2.91.48-4.03,1.43-1.12.95-1.68,2.25-1.68,3.91,0,2.55,1.62,4.63,4.87,6.26l2.81,1.39c1.29.62,2.5,1.3,3.63,2.04,1.13.74,2.06,1.65,2.79,2.73s1.09,2.44,1.09,4.09c0,1.79-.48,3.36-1.45,4.7-.97,1.34-2.25,2.41-3.84,3.19-1.74.81-3.54,1.22-5.42,1.22Z"/>
      <path class="cls-3" d="M191.75,113.91c-1.9,0-3.56-.46-4.96-1.39s-2.47-2.16-3.21-3.7c-.74-1.54-1.11-3.23-1.11-5.08,0-3.19,1.08-5.99,3.23-8.4,2.1-2.3,4.4-3.44,6.89-3.44,2.02,0,3.7.73,5.06,2.21,1.36,1.47,2.04,3.2,2.04,5.19,0,.42-.08.71-.25.88-.42.36-1.41.57-2.98.63l-.76.04c-2.35.17-4.3.28-5.84.34-.53,0-1.09.03-1.66.08-.57.06-1.06.28-1.45.67-.39.39-.59.88-.59,1.47l.04.38c.2,1.23.59,2.39,1.2,3.47.6,1.08,1.4,1.95,2.39,2.62.99.67,2.16,1.01,3.51,1.01,1.93,0,3.77-.78,5.5-2.35l.63.8c-.92,1.15-2.07,2.2-3.44,3.15-1.37.95-2.79,1.43-4.24,1.43ZM189.11,99.58c3.67,0,5.77-.1,6.3-.29.25-.08.38-.32.38-.71,0-1.32-.35-2.51-1.05-3.57-.7-1.06-1.79-1.6-3.28-1.6-1.06,0-1.95.33-2.65.99-.7.66-1.26,1.45-1.68,2.37s-.71,1.82-.88,2.69v.13h2.86Z"/>
      <path class="cls-3" d="M210.99,113.78c-.84,0-1.79-.12-2.86-.36s-1.95-.62-2.65-1.16l-.84-5.71,1.13-.17c.28.92.69,1.85,1.22,2.77s1.2,1.7,1.99,2.33c.8.63,1.74.95,2.83.95.95,0,1.76-.32,2.44-.97.67-.64,1.01-1.46,1.01-2.44,0-1.06-.32-1.88-.97-2.46-.64-.57-1.39-1.08-2.23-1.53l-1.85-.88c-.84-.39-1.63-.83-2.37-1.32-.74-.49-1.34-1.11-1.81-1.85-.46-.74-.69-1.67-.69-2.79,0-1.34.36-2.47,1.07-3.38.71-.91,1.64-1.6,2.77-2.06,1.13-.46,2.32-.69,3.55-.69,1.43,0,2.84.25,4.24.76l1.09,5-1.09.29c-.25-.78-.6-1.53-1.05-2.25-.45-.71-1-1.31-1.66-1.78-.66-.48-1.45-.71-2.37-.71s-1.71.32-2.29.95c-.57.63-.86,1.41-.86,2.33,0,1.01.35,1.79,1.05,2.35.84.67,2.04,1.33,3.61,1.97,1.18.5,2.17,1.02,2.98,1.55,1.71,1.12,2.56,2.67,2.56,4.66,0,1.46-.39,2.67-1.15,3.65-.77.98-1.76,1.72-2.98,2.2-1.22.49-2.5.73-3.84.73Z"/>
      <path class="cls-3" d="M230.77,113.78c-1.71,0-2.93-.57-3.65-1.7-.73-1.13-1.09-2.48-1.09-4.05v-13.57c0-.59-.31-.91-.92-.97h-2.48l-.13-.34,1.18-1.34h1.43c.56,0,.87-.31.92-.92v-2.73l3.15-3.23.55.08v5.88c0,.53.31.84.92.92h4.7c.11.2.17.41.17.63,0,.42-.15.77-.46,1.05h-4.41c-.53,0-.84.32-.92.97v11.89c0,.76.07,1.51.21,2.25.14.74.45,1.36.92,1.85.48.49,1.2.73,2.18.73,1.04,0,2.24-.36,3.61-1.09l.34,1.05c-2.58,1.76-4.65,2.65-6.22,2.65Z"/>
      <path class="cls-3" d="M251.01,113.78c-3,0-5.55-1.06-7.67-3.17-2.11-2.11-3.17-4.68-3.17-7.71s1.06-5.59,3.17-7.71c2.11-2.11,4.67-3.17,7.67-3.17s5.59,1.05,7.71,3.15c2.11,2.1,3.17,4.68,3.17,7.73s-1.06,5.63-3.17,7.73c-2.11,2.1-4.68,3.15-7.71,3.15ZM251.01,112.39c1.79,0,3.3-.93,4.52-2.79s1.83-4.1,1.83-6.7-.61-4.84-1.83-6.7c-1.22-1.86-2.72-2.79-4.52-2.79s-3.23.94-4.47,2.81c-1.25,1.88-1.87,4.1-1.87,6.68s.62,4.8,1.87,6.68c1.25,1.88,2.74,2.81,4.47,2.81Z"/>
      <g>
        <rect class="cls-4" x="182.8" y="68.9" width="17.48" height="11.08"/>
        <rect class="cls-3" x="182.8" y="41.89" width="17.48" height="23.43"/>
      </g>
      <g>
        <rect class="cls-4" x="203.07" y="68.9" width="17.48" height="11.08"/>
        <rect class="cls-3" x="203.07" y="28.76" width="17.48" height="36.57"/>
      </g>
      <g>
        <path class="cls-3" d="M17.12,127.62h-6.6c.24,1.23,1.26,2.02,2.73,2.02.94,0,1.69-.3,2.28-.91l1.06,1.21c-.76.9-1.94,1.37-3.39,1.37-2.82,0-4.65-1.81-4.65-4.32s1.84-4.3,4.35-4.3,4.25,1.72,4.25,4.35c0,.16-.02.39-.03.58ZM10.5,126.32h4.77c-.16-1.21-1.09-2.05-2.38-2.05s-2.21.82-2.39,2.05Z"/>
        <path class="cls-3" d="M33.1,126.38v4.82h-1.97v-4.57c0-1.5-.69-2.22-1.89-2.22-1.29,0-2.19.85-2.19,2.52v4.27h-1.97v-4.57c0-1.5-.69-2.22-1.89-2.22-1.31,0-2.19.85-2.19,2.52v4.27h-1.97v-8.41h1.87v1.07c.63-.76,1.61-1.17,2.76-1.17,1.23,0,2.25.46,2.84,1.4.68-.87,1.81-1.4,3.15-1.4,2.03,0,3.45,1.15,3.45,3.69Z"/>
        <path class="cls-3" d="M44.55,126.99c0,2.61-1.81,4.32-4.27,4.32-1.07,0-2.02-.36-2.69-1.13v4.08h-1.97v-11.47h1.87v1.1c.66-.8,1.64-1.2,2.79-1.2,2.46,0,4.27,1.7,4.27,4.3ZM42.55,126.99c0-1.61-1.07-2.63-2.49-2.63s-2.5,1.02-2.5,2.63,1.09,2.63,2.5,2.63,2.49-1.02,2.49-2.63Z"/>
        <path class="cls-3" d="M51.28,122.69v1.87c-.17-.03-.32-.05-.46-.05-1.5,0-2.44.88-2.44,2.6v4.08h-1.97v-8.41h1.87v1.23c.57-.88,1.59-1.32,2.99-1.32Z"/>
        <path class="cls-3" d="M60.74,127.62h-6.6c.24,1.23,1.26,2.02,2.73,2.02.94,0,1.69-.3,2.28-.91l1.06,1.21c-.76.9-1.94,1.37-3.39,1.37-2.82,0-4.65-1.81-4.65-4.32s1.84-4.3,4.35-4.3,4.25,1.72,4.25,4.35c0,.16-.02.39-.03.58ZM54.13,126.32h4.77c-.16-1.21-1.09-2.05-2.38-2.05s-2.21.82-2.39,2.05Z"/>
        <path class="cls-3" d="M70.95,126.38v4.82h-1.97v-4.57c0-1.5-.74-2.22-2-2.22-1.4,0-2.35.85-2.35,2.54v4.25h-1.97v-8.41h1.87v1.09c.65-.77,1.67-1.18,2.9-1.18,2.02,0,3.51,1.15,3.51,3.69Z"/>
        <path class="cls-3" d="M81.76,119.51v11.69h-1.89v-1.09c-.66.8-1.64,1.2-2.79,1.2-2.44,0-4.25-1.7-4.25-4.32s1.81-4.3,4.25-4.3c1.09,0,2.05.36,2.71,1.13v-4.32h1.97ZM79.82,126.99c0-1.61-1.09-2.63-2.5-2.63s-2.5,1.02-2.5,2.63,1.09,2.63,2.5,2.63,2.5-1.02,2.5-2.63Z"/>
        <path class="cls-3" d="M84.07,120.22c0-.66.54-1.18,1.26-1.18s1.26.49,1.26,1.13c0,.69-.52,1.23-1.26,1.23s-1.26-.52-1.26-1.18ZM84.34,122.79h1.97v8.41h-1.97v-8.41Z"/>
        <path class="cls-3" d="M102.95,126.38v4.82h-1.97v-4.57c0-1.5-.69-2.22-1.89-2.22-1.29,0-2.19.85-2.19,2.52v4.27h-1.97v-4.57c0-1.5-.69-2.22-1.89-2.22-1.31,0-2.19.85-2.19,2.52v4.27h-1.97v-8.41h1.87v1.07c.63-.76,1.61-1.17,2.76-1.17,1.23,0,2.25.46,2.84,1.4.68-.87,1.81-1.4,3.15-1.4,2.03,0,3.45,1.15,3.45,3.69Z"/>
        <path class="cls-3" d="M105.2,120.22c0-.66.54-1.18,1.26-1.18s1.26.49,1.26,1.13c0,.69-.52,1.23-1.26,1.23s-1.26-.52-1.26-1.18ZM105.47,122.79h1.97v8.41h-1.97v-8.41Z"/>
        <path class="cls-3" d="M117.89,127.62h-6.6c.24,1.23,1.26,2.02,2.73,2.02.94,0,1.68-.3,2.28-.91l1.06,1.21c-.76.9-1.94,1.37-3.39,1.37-2.82,0-4.65-1.81-4.65-4.32s1.84-4.3,4.35-4.3,4.25,1.72,4.25,4.35c0,.16-.02.39-.03.58ZM111.28,126.32h4.77c-.16-1.21-1.09-2.05-2.38-2.05s-2.21.82-2.39,2.05Z"/>
        <path class="cls-3" d="M128.09,126.38v4.82h-1.97v-4.57c0-1.5-.74-2.22-2-2.22-1.4,0-2.35.85-2.35,2.54v4.25h-1.97v-8.41h1.87v1.09c.65-.77,1.67-1.18,2.9-1.18,2.02,0,3.51,1.15,3.51,3.69Z"/>
        <path class="cls-3" d="M135.65,130.74c-.47.38-1.18.57-1.89.57-1.84,0-2.9-.98-2.9-2.83v-4.05h-1.39v-1.57h1.39v-1.92h1.97v1.92h2.25v1.57h-2.25v4c0,.82.41,1.26,1.17,1.26.41,0,.8-.11,1.1-.35l.55,1.4Z"/>
        <path class="cls-3" d="M136.29,126.99c0-2.52,1.89-4.3,4.47-4.3s4.49,1.78,4.49,4.3-1.87,4.32-4.49,4.32-4.47-1.8-4.47-4.32ZM143.27,126.99c0-1.61-1.07-2.63-2.5-2.63s-2.49,1.02-2.49,2.63,1.07,2.63,2.49,2.63,2.5-1.02,2.5-2.63Z"/>
        <path class="cls-3" d="M146.18,130.37l.76-1.5c.74.49,1.87.83,2.93.83,1.24,0,1.76-.35,1.76-.93,0-1.61-5.2-.09-5.2-3.45,0-1.59,1.43-2.63,3.7-2.63,1.12,0,2.39.27,3.15.72l-.76,1.5c-.8-.47-1.61-.63-2.41-.63-1.2,0-1.76.39-1.76.95,0,1.7,5.2.19,5.2,3.48,0,1.57-1.45,2.6-3.81,2.6-1.4,0-2.8-.41-3.56-.94Z"/>
        <path class="cls-3" d="M162.71,131.45c-.71,0-1.33-.17-1.86-.52-.52-.35-.93-.81-1.2-1.38-.28-.58-.42-1.21-.42-1.91,0-1.2.4-2.25,1.21-3.15.79-.86,1.65-1.29,2.58-1.29.76,0,1.39.28,1.9.83.51.55.76,1.2.76,1.94,0,.16-.03.27-.09.33-.16.14-.53.22-1.12.24l-.28.02c-.88.06-1.61.11-2.19.13-.2,0-.41,0-.62.03-.22.02-.4.11-.54.25s-.22.33-.22.55l.02.14c.07.46.22.89.45,1.3.23.4.52.73.9.98.37.25.81.38,1.32.38.72,0,1.41-.29,2.06-.88l.24.3c-.35.43-.78.82-1.29,1.18s-1.04.53-1.59.53ZM161.72,126.08c1.37,0,2.16-.04,2.36-.11.09-.03.14-.12.14-.27,0-.49-.13-.94-.39-1.34-.26-.4-.67-.6-1.23-.6-.4,0-.73.12-.99.37-.26.25-.47.54-.63.89-.16.35-.27.68-.33,1.01v.05h1.07Z"/>
        <path class="cls-3" d="M171.73,120.22c0-.66.54-1.18,1.26-1.18s1.26.49,1.26,1.13c0,.69-.52,1.23-1.26,1.23s-1.26-.52-1.26-1.18ZM172,122.79h1.97v8.41h-1.97v-8.41Z"/>
        <path class="cls-3" d="M184.83,126.38v4.82h-1.97v-4.57c0-1.5-.74-2.22-2-2.22-1.4,0-2.35.85-2.35,2.54v4.25h-1.97v-8.41h1.87v1.09c.65-.77,1.67-1.18,2.9-1.18,2.02,0,3.51,1.15,3.51,3.69Z"/>
        <path class="cls-3" d="M195.05,122.79l-3.61,8.41h-2.03l-3.61-8.41h2.05l2.61,6.24,2.69-6.24h1.89Z"/>
        <path class="cls-3" d="M203.91,127.62h-6.6c.24,1.23,1.26,2.02,2.73,2.02.94,0,1.68-.3,2.28-.91l1.06,1.21c-.76.9-1.94,1.37-3.39,1.37-2.82,0-4.65-1.81-4.65-4.32s1.84-4.3,4.35-4.3,4.25,1.72,4.25,4.35c0,.16-.02.39-.03.58ZM197.3,126.32h4.77c-.16-1.21-1.09-2.05-2.38-2.05s-2.21.82-2.39,2.05Z"/>
        <path class="cls-3" d="M210.7,122.69v1.87c-.17-.03-.31-.05-.46-.05-1.5,0-2.44.88-2.44,2.6v4.08h-1.97v-8.41h1.87v1.23c.57-.88,1.59-1.32,2.99-1.32Z"/>
        <path class="cls-3" d="M211.43,130.37l.76-1.5c.74.49,1.87.83,2.93.83,1.24,0,1.76-.35,1.76-.93,0-1.61-5.2-.09-5.2-3.45,0-1.59,1.43-2.63,3.7-2.63,1.12,0,2.4.27,3.15.72l-.76,1.5c-.8-.47-1.61-.63-2.41-.63-1.2,0-1.76.39-1.76.95,0,1.7,5.2.19,5.2,3.48,0,1.57-1.45,2.6-3.81,2.6-1.4,0-2.8-.41-3.56-.94Z"/>
        <path class="cls-3" d="M220.23,120.22c0-.66.54-1.18,1.26-1.18s1.26.49,1.26,1.13c0,.69-.52,1.23-1.26,1.23s-1.26-.52-1.26-1.18ZM220.5,122.79h1.97v8.41h-1.97v-8.41Z"/>
        <path class="cls-3" d="M224.36,126.99c0-2.52,1.89-4.3,4.47-4.3s4.49,1.78,4.49,4.3-1.87,4.32-4.49,4.32-4.47-1.8-4.47-4.32ZM231.34,126.99c0-1.61-1.07-2.63-2.5-2.63s-2.49,1.02-2.49,2.63,1.07,2.63,2.49,2.63,2.5-1.02,2.5-2.63Z"/>
        <path class="cls-3" d="M243.49,126.38v4.82h-1.97v-4.57c0-1.5-.74-2.22-2-2.22-1.4,0-2.35.85-2.35,2.54v4.25h-1.97v-8.41h1.87v1.09c.65-.77,1.67-1.18,2.9-1.18,2.02,0,3.51,1.15,3.51,3.69Z"/>
        <path class="cls-3" d="M253.94,127.62h-6.6c.24,1.23,1.26,2.02,2.72,2.02.95,0,1.69-.3,2.28-.91l1.06,1.21c-.76.9-1.94,1.37-3.39,1.37-2.82,0-4.65-1.81-4.65-4.32s1.84-4.3,4.35-4.3,4.25,1.72,4.25,4.35c0,.16-.02.39-.03.58ZM247.33,126.32h4.77c-.16-1.21-1.09-2.05-2.38-2.05s-2.21.82-2.39,2.05Z"/>
        <path class="cls-3" d="M254.9,130.37l.76-1.5c.74.49,1.87.83,2.93.83,1.24,0,1.76-.35,1.76-.93,0-1.61-5.2-.09-5.2-3.45,0-1.59,1.43-2.63,3.7-2.63,1.12,0,2.39.27,3.15.72l-.76,1.5c-.8-.47-1.61-.63-2.41-.63-1.2,0-1.76.39-1.76.95,0,1.7,5.2.19,5.2,3.48,0,1.57-1.45,2.6-3.81,2.6-1.4,0-2.8-.41-3.56-.94Z"/>
      </g>
      <g>
        <path class="cls-2" d="M9.59,158.76l.81-1.82c1.01.81,2.61,1.39,4.16,1.39,1.96,0,2.79-.7,2.79-1.64,0-2.72-7.49-.94-7.49-5.62,0-2.04,1.62-3.76,5.08-3.76,1.51,0,3.1.4,4.2,1.12l-.74,1.82c-1.13-.67-2.38-.99-3.47-.99-1.94,0-2.74.76-2.74,1.71,0,2.68,7.47.94,7.47,5.56,0,2.02-1.64,3.75-5.1,3.75-1.96,0-3.93-.61-4.97-1.51Z"/>
        <path class="cls-2" d="M31.43,158.12v1.96h-9.45v-12.6h9.2v1.96h-6.86v3.28h6.09v1.93h-6.09v3.47h7.11Z"/>
        <path class="cls-2" d="M42.28,160.09l-2.57-3.69c-.16.02-.32.02-.49.02h-2.84v3.67h-2.34v-12.6h5.19c3.31,0,5.37,1.69,5.37,4.48,0,1.91-.97,3.31-2.68,3.98l2.9,4.14h-2.52ZM39.11,149.46h-2.74v5.02h2.74c2.05,0,3.11-.94,3.11-2.52s-1.06-2.5-3.11-2.5Z"/>
        <path class="cls-2" d="M58.71,147.48l-5.49,12.6h-2.3l-5.51-12.6h2.54l4.2,9.72,4.23-9.72h2.34Z"/>
        <path class="cls-2" d="M60.04,147.48h2.34v12.6h-2.34v-12.6Z"/>
        <path class="cls-2" d="M64.88,153.79c0-3.76,2.88-6.48,6.75-6.48,2.05,0,3.82.74,4.99,2.11l-1.51,1.42c-.92-.99-2.05-1.48-3.37-1.48-2.61,0-4.5,1.84-4.5,4.43s1.89,4.43,4.5,4.43c1.31,0,2.45-.49,3.37-1.5l1.51,1.44c-1.17,1.37-2.94,2.11-5.01,2.11-3.85,0-6.73-2.72-6.73-6.48Z"/>
        <path class="cls-2" d="M78.87,147.48h2.34v12.6h-2.34v-12.6Z"/>
        <path class="cls-2" d="M83.71,153.79c0-3.73,2.88-6.48,6.79-6.48s6.79,2.74,6.79,6.48-2.88,6.48-6.79,6.48-6.79-2.75-6.79-6.48ZM94.93,153.79c0-2.58-1.89-4.43-4.43-4.43s-4.43,1.85-4.43,4.43,1.89,4.43,4.43,4.43,4.43-1.86,4.43-4.43Z"/>
        <path class="cls-2" d="M98.71,158.76l.81-1.82c1.01.81,2.61,1.39,4.16,1.39,1.96,0,2.79-.7,2.79-1.64,0-2.72-7.49-.94-7.49-5.62,0-2.04,1.62-3.76,5.08-3.76,1.51,0,3.1.4,4.2,1.12l-.74,1.82c-1.13-.67-2.38-.99-3.47-.99-1.94,0-2.74.76-2.74,1.71,0,2.68,7.47.94,7.47,5.56,0,2.02-1.64,3.75-5.1,3.75-1.96,0-3.92-.61-4.97-1.51Z"/>
        <path class="cls-2" d="M116.06,147.48h2.34v12.6h-2.34v-12.6Z"/>
        <path class="cls-2" d="M133,147.48v12.6h-1.93l-6.95-8.53v8.53h-2.32v-12.6h1.93l6.95,8.53v-8.53h2.32Z"/>
        <path class="cls-2" d="M147.96,160.09l-.02-8.35-4.14,6.91h-1.04l-4.14-6.81v8.25h-2.23v-12.6h1.93l5.01,8.35,4.92-8.35h1.93l.02,12.6h-2.21Z"/>
        <path class="cls-2" d="M152.67,153.79c0-3.73,2.88-6.48,6.79-6.48s6.79,2.74,6.79,6.48-2.88,6.48-6.79,6.48-6.79-2.75-6.79-6.48ZM163.89,153.79c0-2.58-1.89-4.43-4.43-4.43s-4.43,1.85-4.43,4.43,1.89,4.43,4.43,4.43,4.43-1.86,4.43-4.43Z"/>
        <path class="cls-2" d="M179.93,156.67c0,2.16-1.69,3.42-4.93,3.42h-6.27v-12.6h5.91c3.02,0,4.65,1.28,4.65,3.28,0,1.3-.65,2.25-1.62,2.77,1.35.43,2.27,1.49,2.27,3.13ZM171.07,149.32v3.48h3.31c1.62,0,2.54-.58,2.54-1.73s-.92-1.75-2.54-1.75h-3.31ZM177.57,156.43c0-1.26-.95-1.82-2.72-1.82h-3.78v3.64h3.78c1.76,0,2.72-.56,2.72-1.82Z"/>
        <path class="cls-2" d="M182.42,147.48h2.34v12.6h-2.34v-12.6Z"/>
        <path class="cls-2" d="M188.17,147.48h2.34v10.62h6.59v1.98h-8.93v-12.6Z"/>
        <path class="cls-2" d="M198.95,147.48h2.34v12.6h-2.34v-12.6Z"/>
        <path class="cls-2" d="M212.87,157.17h-6.3l-1.24,2.92h-2.41l5.67-12.6h2.3l5.69,12.6h-2.45l-1.26-2.92ZM212.09,155.33l-2.38-5.51-2.36,5.51h4.74Z"/>
        <path class="cls-2" d="M226.42,160.09l-2.58-3.69c-.16.02-.32.02-.49.02h-2.84v3.67h-2.34v-12.6h5.19c3.31,0,5.37,1.69,5.37,4.48,0,1.91-.97,3.31-2.68,3.98l2.9,4.14h-2.52ZM223.25,149.46h-2.74v5.02h2.74c2.05,0,3.12-.94,3.12-2.52s-1.06-2.5-3.12-2.5Z"/>
        <path class="cls-2" d="M231.33,147.48h2.34v12.6h-2.34v-12.6Z"/>
        <path class="cls-2" d="M236.17,153.79c0-3.73,2.88-6.48,6.79-6.48s6.79,2.74,6.79,6.48-2.88,6.48-6.79,6.48-6.79-2.75-6.79-6.48ZM247.39,153.79c0-2.58-1.89-4.43-4.43-4.43s-4.43,1.85-4.43,4.43,1.89,4.43,4.43,4.43,4.43-1.86,4.43-4.43Z"/>
        <path class="cls-2" d="M251.17,158.76l.81-1.82c1.01.81,2.61,1.39,4.16,1.39,1.96,0,2.79-.7,2.79-1.64,0-2.72-7.49-.94-7.49-5.62,0-2.04,1.62-3.76,5.08-3.76,1.51,0,3.1.4,4.2,1.12l-.74,1.82c-1.13-.67-2.38-.99-3.47-.99-1.94,0-2.74.76-2.74,1.71,0,2.68,7.47.94,7.47,5.56,0,2.02-1.64,3.75-5.1,3.75-1.96,0-3.92-.61-4.97-1.51Z"/>
      </g>
    </g>
  </g>
</svg>